<svg id="Calque_1" data-name="Calque 1" xmlns="http://www.w3.org/2000/svg" viewBox="0 0 432.77 432.77"><defs><style>.cls-1{fill:#b0b8bc;fill-rule:evenodd;}</style></defs><title>logo-instagram</title><path class="cls-1" d="M219.22,163.46H381.51A135.25,135.25,0,0,1,516.75,298.7V461A135.25,135.25,0,0,1,381.51,596.23H219.22A135.25,135.25,0,0,1,84,461V298.7A135.25,135.25,0,0,1,219.22,163.46Zm162.29,392.2A94.78,94.78,0,0,0,476.18,461V298.7A94.78,94.78,0,0,0,381.51,204H219.22a94.77,94.77,0,0,0-94.67,94.67V461a94.77,94.77,0,0,0,94.67,94.67ZM192.17,379.85A108.19,108.19,0,1,1,300.36,488,108.2,108.2,0,0,1,192.17,379.85Zm40.57,0a67.62,67.62,0,1,0,67.62-67.62A67.72,67.72,0,0,0,232.74,379.85ZM431.09,263.54a14.42,14.42,0,1,1-14.42-14.42A14.43,14.43,0,0,1,431.09,263.54Z" transform="translate(-83.98 -163.46)"/></svg>