<svg id="Calque_1" data-name="Calque 1" xmlns="http://www.w3.org/2000/svg" viewBox="0 0 518.76 421.49"><defs><style>.cls-1{fill:#b0b8bc;}</style></defs><title>logo-twitter</title><path class="cls-1" d="M557,204a221.79,221.79,0,0,1-61.28,16.79A105.73,105.73,0,0,0,542.52,162a212.35,212.35,0,0,1-67.44,25.75,106.34,106.34,0,0,0-184,72.72,108.9,108.9,0,0,0,2.47,24.25c-88.42-4.31-166.66-46.69-219.21-111.24a106.37,106.37,0,0,0,32.68,142.14A104.89,104.89,0,0,1,59,302.54v1.17a106.84,106.84,0,0,0,85.21,104.5,106.51,106.51,0,0,1-27.89,3.5,93.76,93.76,0,0,1-20.13-1.82C110,452,149.08,483,195.57,484A213.7,213.7,0,0,1,63.71,529.34a199.12,199.12,0,0,1-25.45-1.46A299.4,299.4,0,0,0,201.41,575.6C397.11,575.6,504.1,413.49,504.1,273c0-4.7-.16-9.24-.39-13.74A212.14,212.14,0,0,0,557,204Z" transform="translate(-38.26 -154.11)"/></svg>