<svg id="Calque_1" data-name="Calque 1" xmlns="http://www.w3.org/2000/svg" viewBox="0 0 511.94 384.01"><defs><style>.cls-1{fill:#b0b8bc;}</style></defs><title>logo-youtube</title><path class="cls-1" d="M536.39,233.58c0-45-33.1-81.2-74-81.2-55.4-2.59-111.9-3.59-169.64-3.59h-18c-57.6,0-114.2,1-169.6,3.6-40.8,0-73.9,36.4-73.9,81.4-2.5,35.59-3.56,71.19-3.5,106.79q-.15,53.4,3.4,106.9c0,45,33.1,81.5,73.9,81.5,58.2,2.7,117.9,3.9,178.6,3.8q91.2.3,178.6-3.8c40.9,0,74-36.5,74-81.5,2.4-35.7,3.5-71.3,3.4-107q.35-53.4-3.26-106.9ZM234.75,438.68V242.18l145,98.2Z" transform="translate(-27.74 -148.79)"/></svg>