<svg id="Calque_1" data-name="Calque 1" xmlns="http://www.w3.org/2000/svg" viewBox="0 0 298.75 298.74"><defs><style>.cls-1{fill:#b0b8bc;}</style></defs><title>logo-linkedin</title><path class="cls-1" d="M203.45,234.83c0,19.14-13.31,34.43-34.66,34.43h-.46c-20.54,0-33.84-15.29-33.84-34.43,0-19.49,13.65-34.42,34.65-34.42S203,215.23,203.45,234.83Z" transform="translate(-134.48 -200.41)"/><rect class="cls-1" y="99.19" width="64.18" height="199.55"/><path class="cls-1" d="M433.23,382.57V499.15H369V390c0-26.14-9.34-44-32.56-44-17.74,0-28.24,12-32.91,23.69-1.75,4.2-2.22,9.92-2.22,15.76V499.15H237.17V299.6h64.18v27.77c9.34-13.3,23.93-32.44,57.88-32.44C401.36,294.93,433.23,322.7,433.23,382.57Z" transform="translate(-134.48 -200.41)"/></svg>